# xmcd
#
# Track frame offsets: 
#        150
#        42047
#        104264
#        109021
#        121877
#        226016
#        269468
#
# Disc length: 3914 seconds
#
# Revision: 2
# Processed by: cddbd v1.5.2PL0 Copyright (c) Steve Scherf et al.
# Submitted via: ExactAudioCopyFreeDBPlugin 1.0
#
DISCID=4f0f4807
DTITLE=Sonny Rollins Quartet - The Complete 1963 Paris Concert
DYEAR=1963
DGENRE=Jazz
TTITLE0=Solitude
TTITLE1=On Green Dolphin Street
TTITLE2=Announcement By S. Rollins
TTITLE3=Without A Song
TTITLE4=Sonny Moon For Two
TTITLE5=Everything Happens To Me
TTITLE6=52nd St Theme
EXTD=YEAR: 1963
EXTT0=
EXTT1=
EXTT2=
EXTT3=
EXTT4=
EXTT5=
EXTT6=
PLAYORDER=
